<?xml version="1.0" encoding="iso-8859-1"?>
<!-- Generator: Adobe Illustrator 19.0.0, SVG Export Plug-In . SVG Version: 6.00 Build 0)  -->
<svg xmlns="http://www.w3.org/2000/svg" xmlns:xlink="http://www.w3.org/1999/xlink" version="1.1" id="Capa_1" x="0px" y="0px" viewBox="0 0 481.04 481.04" style="enable-background:new 0 0 481.04 481.04;" xml:space="preserve" width="512px" height="512px">
<g>
	<g>
		<path d="M228.507,0c-70.692,0-128,57.308-128,128c0,61.76,44.8,153.04,104,172.88v36.16h17.44l5.28,26.56    c0.457,2.241-0.067,4.571-1.44,6.4l-12.24,16c-6.544,8.754-6.347,20.824,0.48,29.36l15.28,19.2c2.682,3.287,2.331,8.097-0.8,10.96    l-9.2,9.2c-4.414,4.536-6.858,10.631-6.8,16.96v9.36h16v-9.36c0.029-2.118,0.858-4.147,2.32-5.68l9.2-8.96    c8.666-8.655,9.424-22.447,1.76-32l-15.28-19.2c-2.214-2.877-2.214-6.883,0-9.76l12.24-16c4.131-5.421,5.707-12.367,4.32-19.04    l-4.8-24h14.24v-36.16c59.2-19.84,104-111.12,104-172.88C356.507,57.308,299.2,0,228.507,0z M236.507,321.04h-16v-16h16V321.04z     M228.507,289.04c-60.72,0-112-98.96-112-161.04c0-61.856,50.144-112,112-112s112,50.144,112,112    C340.507,190.08,289.228,289.04,228.507,289.04z" fill="#e0dae0"/>
	</g>
</g>
<g>
	<g>
		<path d="M126.588,128h16c0.044-47.434,38.486-85.876,85.92-85.92v-16C172.255,26.168,126.676,71.748,126.588,128z" fill="#e0dae0"/>
	</g>
</g>
<g>
	<g>
		<path d="M124.507,281.28c0.066-30.928-24.952-56.054-55.88-56.12c-30.928-0.066-56.054,24.952-56.12,55.88    c0,26.56,19.76,64.72,48,71.04v5.2c0.01,3.724,0.887,7.394,2.56,10.72l9.12,18.32c1.518,3.075,0.906,6.776-1.52,9.2l-16,16    c-7.325,7.318-9.131,18.509-4.48,27.76l9.44,17.76c0.596,1.163,0.898,2.454,0.88,3.76v20.24h16V460.8    c-0.01-3.724-0.887-7.394-2.56-10.72l-9.12-18.32c-1.518-3.075-0.906-6.776,1.52-9.2l16-16c7.325-7.318,9.131-18.509,4.48-27.76    l-9.44-17.76c-0.559-1.09-0.86-2.295-0.88-3.52v-5.2C104.747,346,124.507,307.84,124.507,281.28z M68.507,337.04    c-20.24,0-40-32-40-56c0-22.091,17.909-40,40-40s40,17.909,40,40C108.507,305.04,88.747,337.04,68.507,337.04z" fill="#e0dae0"/>
	</g>
</g>
<g>
	<g>
		<path d="M36.507,281.04h16c0-8.837,7.163-16,16-16v-16C50.834,249.04,36.507,263.367,36.507,281.04z" fill="#e0dae0"/>
	</g>
</g>
<g>
	<g>
		<path d="M468.507,385.04c-0.339-22.487-18.842-40.441-41.329-40.102c-1.94,0.029-3.875,0.197-5.791,0.502    c-14.651-29.08-50.103-40.778-79.183-26.126c-11.881,5.986-21.388,15.814-26.977,27.886c-4.308-1.436-8.819-2.166-13.36-2.16    c-22.459-0.357-40.966,17.541-41.36,40c0.035,3.409,0.519,6.798,1.44,10.08c0.965,3.594,4.281,6.047,8,5.92h189.6    c3.719,0.127,7.035-2.326,8-5.92C468.306,391.816,468.629,388.427,468.507,385.04z M276.507,385.04    c0.392-13.623,11.736-24.359,25.36-24c4.887,0,9.678,1.357,13.84,3.92c2.182,1.374,4.892,1.612,7.28,0.64    c2.366-0.979,4.121-3.031,4.72-5.52c6.378-22.669,29.925-35.876,52.594-29.498c13.297,3.741,23.958,13.691,28.605,26.698    c0.646,2.046,2.088,3.747,4,4.72c1.884,0.957,4.069,1.129,6.08,0.48c2.576-0.893,5.275-1.378,8-1.44    c13.645-0.447,25.069,10.251,25.517,23.897c0.001,0.034,0.002,0.069,0.003,0.103H276.507z" fill="#e0dae0"/>
	</g>
</g>
<g>
</g>
<g>
</g>
<g>
</g>
<g>
</g>
<g>
</g>
<g>
</g>
<g>
</g>
<g>
</g>
<g>
</g>
<g>
</g>
<g>
</g>
<g>
</g>
<g>
</g>
<g>
</g>
<g>
</g>
</svg>
