<?xml version="1.0" encoding="UTF-8" standalone="no"?>
<!-- Generator: Adobe Illustrator 19.0.0, SVG Export Plug-In . SVG Version: 6.00 Build 0)  -->

<svg
   xmlns:dc="http://purl.org/dc/elements/1.1/"
   xmlns:cc="http://creativecommons.org/ns#"
   xmlns:rdf="http://www.w3.org/1999/02/22-rdf-syntax-ns#"
   xmlns:svg="http://www.w3.org/2000/svg"
   xmlns="http://www.w3.org/2000/svg"
   xmlns:sodipodi="http://sodipodi.sourceforge.net/DTD/sodipodi-0.dtd"
   xmlns:inkscape="http://www.inkscape.org/namespaces/inkscape"
   version="1.1"
   id="Layer_1"
   x="0px"
   y="0px"
   viewBox="0 0 512 512"
   xml:space="preserve"
   inkscape:version="0.91 r13725"
   sodipodi:docname="groom-icon.svg"
   width="512"
   height="512"><metadata
     id="metadata54"><rdf:RDF><cc:Work
         rdf:about=""><dc:format>image/svg+xml</dc:format><dc:type
           rdf:resource="http://purl.org/dc/dcmitype/StillImage" /><dc:title></dc:title></cc:Work></rdf:RDF></metadata><defs
     id="defs52" /><sodipodi:namedview
     pagecolor="#ffffff"
     bordercolor="#666666"
     borderopacity="1"
     objecttolerance="10"
     gridtolerance="10"
     guidetolerance="10"
     inkscape:pageopacity="0"
     inkscape:pageshadow="2"
     inkscape:window-width="1920"
     inkscape:window-height="1017"
     id="namedview50"
     showgrid="false"
     inkscape:zoom="1"
     inkscape:cx="256"
     inkscape:cy="240"
     inkscape:window-x="-4"
     inkscape:window-y="-4"
     inkscape:window-maximized="1"
     inkscape:current-layer="Layer_1" /><g
     id="XMLID_24_"
     style="fill:#e0dae0;fill-opacity:1"
     transform="matrix(1.0541667,0,0,1.0541667,-5.9583313,6)"><g
       id="g4"
       style="fill:#e0dae0;fill-opacity:1"><g
         id="g6"
         style="fill:#e0dae0;fill-opacity:1"><path
           d="m 186.09,159.989 c 4.96,2.365 10.899,0.283 13.299,-4.654 0.314,-0.396 1.842,-1.392 4.366,-1.392 2.524,0 4.053,0.997 4.366,1.393 1.727,3.554 5.288,5.629 9,5.629 1.443,0 2.909,-0.314 4.298,-0.976 4.985,-2.378 7.099,-8.347 4.721,-13.331 -3.684,-7.724 -12.471,-12.715 -22.386,-12.715 -9.915,0 -18.702,4.991 -22.386,12.715 -2.378,4.985 -0.264,10.953 4.722,13.331 z"
           id="path8"
           style="fill:#e0dae0;fill-opacity:1"
           inkscape:connector-curvature="0" /><path
           d="m 248.918,159.989 c 1.389,0.662 2.854,0.977 4.297,0.976 3.712,0 7.274,-2.075 9.001,-5.63 0.314,-0.396 1.842,-1.392 4.365,-1.392 2.524,0 4.052,0.996 4.366,1.392 2.399,4.937 8.337,7.02 13.299,4.654 4.986,-2.378 7.099,-8.347 4.721,-13.331 -3.684,-7.724 -12.471,-12.715 -22.386,-12.715 -9.916,0 -18.703,4.991 -22.386,12.716 -2.377,4.986 -0.263,10.953 4.723,13.33 z"
           id="path10"
           style="fill:#e0dae0;fill-opacity:1"
           inkscape:connector-curvature="0" /><path
           d="m 250.001,370 0,-2 c 0,-5.522 -4.477,-10 -10,-10 -5.523,0 -10,4.478 -10,10 l 0,2 c 0,5.522 4.477,10 10,10 5.523,0 10,-4.478 10,-10 z"
           id="path12"
           style="fill:#e0dae0;fill-opacity:1"
           inkscape:connector-curvature="0" /><path
           d="M 358.623,318.204 C 349.129,306.635 335.122,300 320.191,300 l -20.261,0 c -0.152,-0.004 -0.304,-0.004 -0.456,0 l -118.948,0 c -0.152,-0.004 -0.303,-0.004 -0.456,0 l -20.261,0 c -14.93,0 -28.939,6.635 -38.433,18.204 -9.553,11.642 -13.344,26.801 -10.401,41.592 0.043,0.22 0.094,0.438 0.153,0.655 l 30.278,112.155 c 1.178,4.363 5.136,7.394 9.655,7.394 l 177.878,0 c 4.52,0 8.477,-3.032 9.655,-7.394 l 30.278,-112.155 c 0.058,-0.217 0.11,-0.434 0.153,-0.655 2.943,-14.791 -0.848,-29.951 -10.402,-41.592 z m -73.897,1.796 -41.457,100 -6.539,0 -41.457,-100 89.453,0 z M 349.468,355.586 321.28,460 158.72,460 130.531,355.586 c -1.658,-8.798 0.633,-17.781 6.306,-24.694 C 142.518,323.97 150.89,320 159.809,320 l 13.813,0 47.19,113.829 c 1.549,3.735 5.194,6.171 9.238,6.171 l 19.899,0 c 4.044,0 7.689,-2.436 9.238,-6.171 L 273.212,400 l 26.486,0 c 5.523,0 10,-4.478 10,-10 0,-5.522 -4.477,-10 -10,-10 l -18.194,0 24.874,-60 13.813,0 c 8.919,0 17.292,3.97 22.972,10.891 5.673,6.914 7.963,15.898 6.305,24.695 z"
           id="path14"
           style="fill:#e0dae0;fill-opacity:1"
           inkscape:connector-curvature="0" /><path
           d="m 240,348 c 5.523,0 10,-4.478 10,-10 l 0,-2 c 0,-5.522 -4.477,-10 -10,-10 -5.523,0 -10,4.478 -10,10 l 0,2 c 0,5.522 4.477,10 10,10 z"
           id="path16"
           style="fill:#e0dae0;fill-opacity:1"
           inkscape:connector-curvature="0" /><path
           d="m 145.609,189.889 c 3.193,48.132 43.311,85.835 91.334,85.835 48.023,0 88.141,-37.703 91.333,-85.835 l 3.072,-46.316 c 0.345,-2.639 0.519,-5.27 0.519,-7.825 0,-0.055 -0.001,-0.108 -0.001,-0.162 0.004,-0.225 0,-0.448 -0.012,-0.671 -0.447,-32.667 -27.149,-59.167 -59.736,-59.167 l -2.27,0 c -20.272,0 -38.764,10.261 -48.122,26.125 -19.234,-0.978 -43.485,-4.407 -61.627,-7.938 3.653,-40.376 36.947,-72.869 77.349,-73.902 C 238.296,20.011 239.147,20 240,20 c 29.047,0 71.507,11.939 91.487,29.581 l -9.691,20.974 c -2.317,5.013 -0.131,10.956 4.883,13.272 5.014,2.312 10.956,0.13 13.272,-4.884 l 12.603,-27.275 c 1.649,-3.568 1.054,-7.772 -1.52,-10.743 C 329.128,15.646 276.343,0 240,0 c -1.028,0 -2.052,0.013 -3.069,0.039 -26.21,0.671 -50.717,11.608 -69.005,30.797 -18.159,19.053 -28.16,44.084 -28.16,70.48 0,0.221 0.065,1.522 0.097,1.821 l 5.746,86.752 z m 80.184,-67.832 c 0.37,0.012 0.74,0.003 1.11,-0.027 l 1.797,-0.146 c 3.778,-0.306 7.058,-2.722 8.472,-6.239 4.781,-11.9 17.912,-19.895 32.675,-19.895 l 2.27,0 c 21.778,0 39.605,17.83 39.74,39.747 10e-4,0.083 0.003,0.166 0.005,0.249 10e-4,0.045 0.002,0.089 0.003,0.134 -0.006,1.731 -0.135,3.531 -0.383,5.354 -0.031,0.229 -0.054,0.458 -0.069,0.687 l -3.094,46.646 c -2.497,37.659 -33.85,67.159 -71.376,67.159 -37.525,0 -68.878,-29.5 -71.376,-67.158 l -4.913,-74.176 c 20.039,3.686 45.707,7.074 65.139,7.665 z"
           id="path18"
           style="fill:#e0dae0;fill-opacity:1"
           inkscape:connector-curvature="0" /></g></g></g><g
     id="g20"
     transform="translate(0,32)" /><g
     id="g22"
     transform="translate(0,32)" /><g
     id="g24"
     transform="translate(0,32)" /><g
     id="g26"
     transform="translate(0,32)" /><g
     id="g28"
     transform="translate(0,32)" /><g
     id="g30"
     transform="translate(0,32)" /><g
     id="g32"
     transform="translate(0,32)" /><g
     id="g34"
     transform="translate(0,32)" /><g
     id="g36"
     transform="translate(0,32)" /><g
     id="g38"
     transform="translate(0,32)" /><g
     id="g40"
     transform="translate(0,32)" /><g
     id="g42"
     transform="translate(0,32)" /><g
     id="g44"
     transform="translate(0,32)" /><g
     id="g46"
     transform="translate(0,32)" /><g
     id="g48"
     transform="translate(0,32)" /></svg>